<svg xmlns="http://www.w3.org/2000/svg" xmlns:xlink="http://www.w3.org/1999/xlink" version="1.2" width="141.42mm" height="100mm" viewBox="0 0 141.42 100" stroke="none" fill="#000000" stroke-width="0.3" font-size="3.88">
<defs>
  <marker id="arrow" markerWidth="15" markerHeight="7" refX="5" refY="3.5" orient="auto" markerUnits="strokeWidth">
    <path d="M0,0 L15,3.5 L0,7 z" stroke="context-stroke" fill="context-stroke"></path>
  </marker>
</defs>
<g stroke-width="0.3" fill="#000000" fill-opacity="0.000" stroke="#D3D3D3" id="img-9af239d9-1">
  <g transform="translate(67.23,55.44)">
    <path fill="none" d="M-2.2,-0.65 L2.2,0.65 " class="primitive"></path>
  </g>
  <g transform="translate(61.12,53.42)">
    <path fill="none" d="M1.26,0.48 L-1.26,-0.48 " class="primitive"></path>
  </g>
  <g transform="translate(40.33,63.3)">
    <path fill="none" d="M-0.16,0.16 L0.16,-0.16 " class="primitive"></path>
  </g>
  <g transform="translate(43.74,61.02)">
    <path fill="none" d="M-1.2,0.65 L1.2,-0.65 " class="primitive"></path>
  </g>
  <g transform="translate(55.12,45.73)">
    <path fill="none" d="M1.51,-0.14 L-1.51,0.14 " class="primitive"></path>
  </g>
  <g transform="translate(61.78,45.88)">
    <path fill="none" d="M-2.23,-0.25 L2.23,0.25 " class="primitive"></path>
  </g>
  <g transform="translate(72.56,68.13)">
    <path fill="none" d="M-0.54,0.94 L0.54,-0.94 " class="primitive"></path>
  </g>
  <g transform="translate(91.28,33.11)">
    <path fill="none" d="M0.95,-0.34 L-0.95,0.34 " class="primitive"></path>
  </g>
  <g transform="translate(70.82,26.56)">
    <path fill="none" d="M0.6,0.74 L-0.6,-0.74 " class="primitive"></path>
  </g>
  <g transform="translate(73.57,31.16)">
    <path fill="none" d="M-0.95,-1.97 L0.95,1.97 " class="primitive"></path>
  </g>
  <g transform="translate(71.89,26.28)">
    <path fill="none" d="M0.12,0.89 L-0.12,-0.89 " class="primitive"></path>
  </g>
  <g transform="translate(91.72,49.52)">
    <path fill="none" d="M0.78,-0.45 L-0.78,0.45 " class="primitive"></path>
  </g>
  <g transform="translate(62.91,61.68)">
    <path fill="none" d="M2.01,-0.45 L-2.01,0.45 " class="primitive"></path>
  </g>
  <g transform="translate(70.23,60.13)">
    <path fill="none" d="M-2.49,0.5 L2.49,-0.5 " class="primitive"></path>
  </g>
  <g transform="translate(65.57,59.61)">
    <path fill="none" d="M0.19,0.34 L-0.19,-0.34 " class="primitive"></path>
  </g>
  <g transform="translate(68.16,62.73)">
    <path fill="none" d="M-1.3,1.23 L1.3,-1.23 " class="primitive"></path>
  </g>
  <g transform="translate(63.79,65.86)">
    <path fill="none" d="M0.97,-0.47 L-0.97,0.47 " class="primitive"></path>
  </g>
  <g transform="translate(90.2,30.1)">
    <path fill="none" d="M-0.55,0.12 L0.55,-0.12 " class="primitive"></path>
  </g>
  <g transform="translate(85.31,30.46)">
    <path fill="none" d="M1.46,0.04 L-1.46,-0.04 " class="primitive"></path>
  </g>
  <g transform="translate(88.63,32.22)">
    <path fill="none" d="M-0.15,-0.66 L0.15,0.66 " class="primitive"></path>
  </g>
  <g transform="translate(64.54,57.48)">
    <path fill="none" d="M-1.66,1.57 L1.66,-1.57 " class="primitive"></path>
  </g>
  <g transform="translate(60.39,62.2)">
    <path fill="none" d="M0.96,-1.39 L-0.96,1.39 " class="primitive"></path>
  </g>
  <g transform="translate(76.76,57.69)">
    <path fill="none" d="M1.53,-0.97 L-1.53,0.97 " class="primitive"></path>
  </g>
  <g transform="translate(81.32,54.26)">
    <path fill="none" d="M-1.03,0.94 L1.03,-0.94 " class="primitive"></path>
  </g>
  <g transform="translate(51.72,62.35)">
    <path fill="none" d="M0.99,0.27 L-0.99,-0.27 " class="primitive"></path>
  </g>
  <g transform="translate(70.65,47.66)">
    <path fill="none" d="M0.05,0.23 L-0.05,-0.23 " class="primitive"></path>
  </g>
  <g transform="translate(69.01,52)">
    <path fill="none" d="M1.33,-2.13 L-1.33,2.13 " class="primitive"></path>
  </g>
  <g transform="translate(71.97,45.17)">
    <path fill="none" d="M-0.75,2.72 L0.75,-2.72 " class="primitive"></path>
  </g>
  <g transform="translate(72.05,51.64)">
    <path fill="none" d="M-0.7,-1.73 L0.7,1.73 " class="primitive"></path>
  </g>
  <g transform="translate(73.66,32.8)">
    <path fill="none" d="M-1.34,0.63 L1.34,-0.63 " class="primitive"></path>
  </g>
  <g transform="translate(43.67,60)">
    <path fill="none" d="M-0.97,0.11 L0.97,-0.11 " class="primitive"></path>
  </g>
  <g transform="translate(56.63,62.68)">
    <path fill="none" d="M1.4,-0.12 L-1.4,0.12 " class="primitive"></path>
  </g>
  <g transform="translate(54.11,64.38)">
    <path fill="none" d="M-0.1,-0.43 L0.1,0.43 " class="primitive"></path>
  </g>
  <g transform="translate(59.5,56.5)">
    <path fill="none" d="M-3.4,0.7 L3.4,-0.7 " class="primitive"></path>
  </g>
  <g transform="translate(50.39,58.61)">
    <path fill="none" d="M2.91,-0.76 L-2.91,0.76 " class="primitive"></path>
  </g>
  <g transform="translate(71.99,43.14)">
    <path fill="none" d="M-0.48,-0.36 L0.48,0.36 " class="primitive"></path>
  </g>
  <g transform="translate(73.91,68.28)">
    <path fill="none" d="M-0.12,-1.01 L0.12,1.01 " class="primitive"></path>
  </g>
  <g transform="translate(73.9,62.79)">
    <path fill="none" d="M-0.17,2.4 L0.17,-2.4 " class="primitive"></path>
  </g>
  <g transform="translate(78.58,33.66)">
    <path fill="none" d="M2.13,-0.27 L-2.13,0.27 " class="primitive"></path>
  </g>
  <g transform="translate(79.98,35.3)">
    <path fill="none" d="M1.31,-1.25 L-1.31,1.25 " class="primitive"></path>
  </g>
  <g transform="translate(85.59,33.56)">
    <path fill="none" d="M-1.97,-0.2 L1.97,0.2 " class="primitive"></path>
  </g>
  <g transform="translate(83.65,30.83)">
    <path fill="none" d="M-0.89,1.43 L0.89,-1.43 " class="primitive"></path>
  </g>
  <g transform="translate(78.89,54.9)">
    <path fill="none" d="M1.32,1.45 L-1.32,-1.45 " class="primitive"></path>
  </g>
  <g transform="translate(82.03,59.32)">
    <path fill="none" d="M-0.54,-1.11 L0.54,1.11 " class="primitive"></path>
  </g>
  <g transform="translate(75.12,48.42)">
    <path fill="none" d="M1.25,3.15 L-1.25,-3.15 " class="primitive"></path>
  </g>
  <g transform="translate(81.02,52.6)">
    <path fill="none" d="M-2.79,-0.02 L2.79,0.02 " class="primitive"></path>
  </g>
  <g transform="translate(75.45,55.96)">
    <path fill="none" d="M0.92,-2.39 L-0.92,2.39 " class="primitive"></path>
  </g>
  <g transform="translate(73.45,53.18)">
    <path fill="none" d="M1.89,-0.34 L-1.89,0.34 " class="primitive"></path>
  </g>
  <g transform="translate(56.61,65.18)">
    <path fill="none" d="M-0.81,0.25 L0.81,-0.25 " class="primitive"></path>
  </g>
  <g transform="translate(73.67,34.87)">
    <path fill="none" d="M0.18,-0.11 L-0.18,0.11 " class="primitive"></path>
  </g>
  <g transform="translate(75.61,32.85)">
    <path fill="none" d="M-0.13,0.27 L0.13,-0.27 " class="primitive"></path>
  </g>
  <g transform="translate(74,37.77)">
    <path fill="none" d="M0.72,-2.63 L-0.72,2.63 " class="primitive"></path>
  </g>
  <g transform="translate(75.63,40.82)">
    <path fill="none" d="M-1.56,2.49 L1.56,-2.49 " class="primitive"></path>
  </g>
  <g transform="translate(73.02,41.75)">
    <path fill="none" d="M0.27,1.48 L-0.27,-1.48 " class="primitive"></path>
  </g>
  <g transform="translate(69.47,45.28)">
    <path fill="none" d="M2.61,-0.66 L-2.61,0.66 " class="primitive"></path>
  </g>
  <g transform="translate(74.52,57.54)">
    <path fill="none" d="M-2.36,-0.66 L2.36,0.66 " class="primitive"></path>
  </g>
  <g transform="translate(69.63,56.84)">
    <path fill="none" d="M-0.2,0.06 L0.2,-0.06 " class="primitive"></path>
  </g>
  <g transform="translate(72.49,62)">
    <path fill="none" d="M-1.05,-0.65 L1.05,0.65 " class="primitive"></path>
  </g>
  <g transform="translate(70.17,62.58)">
    <path fill="none" d="M0.08,-0.87 L-0.08,0.87 " class="primitive"></path>
  </g>
  <g transform="translate(69.41,58.92)">
    <path fill="none" d="M0.41,0.77 L-0.41,-0.77 " class="primitive"></path>
  </g>
  <g transform="translate(71.75,57.52)">
    <path fill="none" d="M-0.96,2.16 L0.96,-2.16 " class="primitive"></path>
  </g>
  <g transform="translate(69,56.65)">
    <path fill="none" d="M0.96,0.78 L-0.96,-0.78 " class="primitive"></path>
  </g>
  <g transform="translate(72.59,59.54)">
    <path fill="none" d="M-0.69,-0.55 L0.69,0.55 " class="primitive"></path>
  </g>
  <g transform="translate(72.79,38.16)">
    <path fill="none" d="M0.01,-0.04 L-0.01,0.04 " class="primitive"></path>
  </g>
  <g transform="translate(72.45,37.43)">
    <path fill="none" d="M-0.05,-0.76 L0.05,0.76 " class="primitive"></path>
  </g>
  <g transform="translate(79.58,60.38)">
    <path fill="none" d="M0.65,0.88 L-0.65,-0.88 " class="primitive"></path>
  </g>
  <g transform="translate(80.56,63.15)">
    <path fill="none" d="M-0.01,0.04 L0.01,-0.04 " class="primitive"></path>
  </g>
  <g transform="translate(80.88,57.46)">
    <path fill="none" d="M-1.37,0.58 L1.37,-0.58 " class="primitive"></path>
  </g>
  <g transform="translate(79.3,30.99)">
    <path fill="none" d="M1.66,-0.33 L-1.66,0.33 " class="primitive"></path>
  </g>
  <g transform="translate(90.05,46.38)">
    <path fill="none" d="M0.26,-1.04 L-0.26,1.04 " class="primitive"></path>
  </g>
  <g transform="translate(90.89,41.56)">
    <path fill="none" d="M-0.2,1.72 L0.2,-1.72 " class="primitive"></path>
  </g>
  <g transform="translate(89.08,46.18)">
    <path fill="none" d="M0.77,-0.96 L-0.77,0.96 " class="primitive"></path>
  </g>
  <g transform="translate(87.41,50.54)">
    <path fill="none" d="M1.26,-1.24 L-1.26,1.24 " class="primitive"></path>
  </g>
  <g transform="translate(60.19,65.72)">
    <path fill="none" d="M0.47,0.4 L-0.47,-0.4 " class="primitive"></path>
  </g>
  <g transform="translate(86.35,26.76)">
    <path fill="none" d="M0.54,-0.75 L-0.54,0.75 " class="primitive"></path>
  </g>
  <g transform="translate(72.78,62.46)">
    <path fill="none" d="M0.64,0.3 L-0.64,-0.3 " class="primitive"></path>
  </g>
  <g transform="translate(77.43,63.73)">
    <path fill="none" d="M-1.34,-0.19 L1.34,0.19 " class="primitive"></path>
  </g>
  <g transform="translate(78.21,34.93)">
    <path fill="none" d="M-0.24,1.42 L0.24,-1.42 " class="primitive"></path>
  </g>
  <g transform="translate(67.23,54.65)">
    <path fill="none" d="M-1.55,0.46 L1.55,-0.46 " class="primitive"></path>
  </g>
  <g transform="translate(68.73,54.94)">
    <path fill="none" d="M-2.97,0.38 L2.97,-0.38 " class="primitive"></path>
  </g>
  <g transform="translate(43.87,59.17)">
    <path fill="none" d="M0.85,0.21 L-0.85,-0.21 " class="primitive"></path>
  </g>
  <g transform="translate(47.73,60.72)">
    <path fill="none" d="M-0.51,-0.31 L0.51,0.31 " class="primitive"></path>
  </g>
  <g transform="translate(88,53.35)">
    <path fill="none" d="M-1.34,-0.36 L1.34,0.36 " class="primitive"></path>
  </g>
  <g transform="translate(84.4,54.48)">
    <path fill="none" d="M0.41,-0.87 L-0.41,0.87 " class="primitive"></path>
  </g>
  <g transform="translate(11.89,58.66)">
    <path fill="none" d="M0.03,-0.23 L-0.03,0.23 " class="primitive"></path>
  </g>
  <g transform="translate(65.79,53.92)">
    <path fill="none" d="M0.38,0.35 L-0.38,-0.35 " class="primitive"></path>
  </g>
  <g transform="translate(65.95,56.69)">
    <path fill="none" d="M0.47,-0.68 L-0.47,0.68 " class="primitive"></path>
  </g>
  <g transform="translate(68.61,54.43)">
    <path fill="none" d="M-0.27,0.11 L0.27,-0.11 " class="primitive"></path>
  </g>
  <g transform="translate(90.12,36.36)">
    <path fill="none" d="M0.65,1.45 L-0.65,-1.45 " class="primitive"></path>
  </g>
  <g transform="translate(86.53,51.57)">
    <path fill="none" d="M1.9,-0.55 L-1.9,0.55 " class="primitive"></path>
  </g>
  <g transform="translate(65.78,48.85)">
    <path fill="none" d="M0.18,1.53 L-0.18,-1.53 " class="primitive"></path>
  </g>
  <g transform="translate(67.28,54.3)">
    <path fill="none" d="M-0.78,-1.88 L0.78,1.88 " class="primitive"></path>
  </g>
  <g transform="translate(85.43,50.28)">
    <path fill="none" d="M1.33,-1.37 L-1.33,1.37 " class="primitive"></path>
  </g>
  <g transform="translate(112.71,18.82)">
    <path fill="none" d="M-0.36,-0.01 L0.36,0.01 " class="primitive"></path>
  </g>
  <g transform="translate(78.76,30.5)">
    <path fill="none" d="M-0.06,0.94 L0.06,-0.94 " class="primitive"></path>
  </g>
  <g transform="translate(69.69,59.38)">
    <path fill="none" d="M0.68,1.23 L-0.68,-1.23 " class="primitive"></path>
  </g>
  <g transform="translate(81.63,62.76)">
    <path fill="none" d="M-0.54,0.52 L0.54,-0.52 " class="primitive"></path>
  </g>
  <g transform="translate(85.74,52.45)">
    <path fill="none" d="M1,-0.02 L-1,0.02 " class="primitive"></path>
  </g>
  <g transform="translate(85.61,53.34)">
    <path fill="none" d="M1.03,0.36 L-1.03,-0.36 " class="primitive"></path>
  </g>
  <g transform="translate(78.21,53.44)">
    <path fill="none" d="M-3.63,0.67 L3.63,-0.67 " class="primitive"></path>
  </g>
</g>
<g stroke-width="0.3" stroke="#D3D3D3" id="img-9af239d9-2">
</g>
<g font-size="4" stroke="#000000" stroke-opacity="0.000" fill="#000000" id="img-9af239d9-3">
</g>
<g stroke-width="0" stroke="#000000" stroke-opacity="0.000" fill="#40E0D0" id="img-9af239d9-4">
  <g transform="translate(63.67,54.39)">
    <circle cx="0" cy="0" r="1.41" class="primitive"></circle>
  </g>
  <g transform="translate(39.29,64.29)">
    <circle cx="0" cy="0" r="1.41" class="primitive"></circle>
  </g>
  <g transform="translate(41.38,62.31)">
    <circle cx="0" cy="0" r="1.41" class="primitive"></circle>
  </g>
  <g transform="translate(58.09,45.46)">
    <circle cx="0" cy="0" r="1.41" class="primitive"></circle>
  </g>
  <g transform="translate(71.45,70.03)">
    <circle cx="0" cy="0" r="1.41" class="primitive"></circle>
  </g>
  <g transform="translate(93.55,32.31)">
    <circle cx="0" cy="0" r="1.41" class="primitive"></circle>
  </g>
  <g transform="translate(72.15,28.21)">
    <circle cx="0" cy="0" r="1.41" class="primitive"></circle>
  </g>
  <g transform="translate(69.49,24.91)">
    <circle cx="0" cy="0" r="1.41" class="primitive"></circle>
  </g>
  <g transform="translate(93.65,48.42)">
    <circle cx="0" cy="0" r="1.41" class="primitive"></circle>
  </g>
  <g transform="translate(66.32,60.92)">
    <circle cx="0" cy="0" r="1.41" class="primitive"></circle>
  </g>
  <g transform="translate(65.98,64.8)">
    <circle cx="0" cy="0" r="1.41" class="primitive"></circle>
  </g>
  <g transform="translate(88.25,30.53)">
    <circle cx="0" cy="0" r="1.41" class="primitive"></circle>
  </g>
  <g transform="translate(62,59.88)">
    <circle cx="0" cy="0" r="1.41" class="primitive"></circle>
  </g>
  <g transform="translate(21.52,79.18)">
    <circle cx="0" cy="0" r="1.41" class="primitive"></circle>
  </g>
  <g transform="translate(35.25,87.79)">
    <circle cx="0" cy="0" r="1.41" class="primitive"></circle>
  </g>
  <g transform="translate(79.38,56.02)">
    <circle cx="0" cy="0" r="1.41" class="primitive"></circle>
  </g>
  <g transform="translate(54.08,62.99)">
    <circle cx="0" cy="0" r="1.41" class="primitive"></circle>
  </g>
  <g transform="translate(129.64,55.9)">
    <circle cx="0" cy="0" r="1.41" class="primitive"></circle>
  </g>
  <g transform="translate(70.94,48.91)">
    <circle cx="0" cy="0" r="1.41" class="primitive"></circle>
  </g>
  <g transform="translate(71.1,34.01)">
    <circle cx="0" cy="0" r="1.41" class="primitive"></circle>
  </g>
  <g transform="translate(41.24,60.26)">
    <circle cx="0" cy="0" r="1.41" class="primitive"></circle>
  </g>
  <g transform="translate(59.5,62.44)">
    <circle cx="0" cy="0" r="1.41" class="primitive"></circle>
  </g>
  <g transform="translate(53.77,62.92)">
    <circle cx="0" cy="0" r="1.41" class="primitive"></circle>
  </g>
  <g transform="translate(54.69,57.48)">
    <circle cx="0" cy="0" r="1.41" class="primitive"></circle>
  </g>
  <g transform="translate(70.51,42.02)">
    <circle cx="0" cy="0" r="1.41" class="primitive"></circle>
  </g>
  <g transform="translate(73.66,66.23)">
    <circle cx="0" cy="0" r="1.41" class="primitive"></circle>
  </g>
  <g transform="translate(82.16,33.21)">
    <circle cx="0" cy="0" r="1.41" class="primitive"></circle>
  </g>
  <g transform="translate(81.01,57.23)">
    <circle cx="0" cy="0" r="1.41" class="primitive"></circle>
  </g>
  <g transform="translate(76.76,52.57)">
    <circle cx="0" cy="0" r="1.41" class="primitive"></circle>
  </g>
  <g transform="translate(54.45,65.84)">
    <circle cx="0" cy="0" r="1.41" class="primitive"></circle>
  </g>
  <g transform="translate(74.99,34.11)">
    <circle cx="0" cy="0" r="1.41" class="primitive"></circle>
  </g>
  <g transform="translate(92.15,29.67)">
    <circle cx="0" cy="0" r="1.41" class="primitive"></circle>
  </g>
  <g transform="translate(73.47,44.27)">
    <circle cx="0" cy="0" r="1.41" class="primitive"></circle>
  </g>
  <g transform="translate(70.78,56.49)">
    <circle cx="0" cy="0" r="1.41" class="primitive"></circle>
  </g>
  <g transform="translate(70.37,46.4)">
    <circle cx="0" cy="0" r="1.41" class="primitive"></circle>
  </g>
  <g transform="translate(70.34,60.67)">
    <circle cx="0" cy="0" r="1.41" class="primitive"></circle>
  </g>
  <g transform="translate(114.92,82.22)">
    <circle cx="0" cy="0" r="1.41" class="primitive"></circle>
  </g>
  <g transform="translate(70.92,58.21)">
    <circle cx="0" cy="0" r="1.41" class="primitive"></circle>
  </g>
  <g transform="translate(73.02,37.09)">
    <circle cx="0" cy="0" r="1.41" class="primitive"></circle>
  </g>
  <g transform="translate(72.34,35.63)">
    <circle cx="0" cy="0" r="1.41" class="primitive"></circle>
  </g>
  <g transform="translate(80.91,62.18)">
    <circle cx="0" cy="0" r="1.41" class="primitive"></circle>
  </g>
  <g transform="translate(48.7,8.33)">
    <circle cx="0" cy="0" r="1.41" class="primitive"></circle>
  </g>
  <g transform="translate(78.25,58.58)">
    <circle cx="0" cy="0" r="1.41" class="primitive"></circle>
  </g>
  <g transform="translate(27.81,19.42)">
    <circle cx="0" cy="0" r="1.41" class="primitive"></circle>
  </g>
  <g transform="translate(82.38,30.39)">
    <circle cx="0" cy="0" r="1.41" class="primitive"></circle>
  </g>
  <g transform="translate(76.22,31.6)">
    <circle cx="0" cy="0" r="1.41" class="primitive"></circle>
  </g>
  <g transform="translate(90.57,44.31)">
    <circle cx="0" cy="0" r="1.41" class="primitive"></circle>
  </g>
  <g transform="translate(89.53,48.45)">
    <circle cx="0" cy="0" r="1.41" class="primitive"></circle>
  </g>
  <g transform="translate(61.6,66.92)">
    <circle cx="0" cy="0" r="1.41" class="primitive"></circle>
  </g>
  <g transform="translate(87.56,25.08)">
    <circle cx="0" cy="0" r="1.41" class="primitive"></circle>
  </g>
  <g transform="translate(74.65,63.33)">
    <circle cx="0" cy="0" r="1.41" class="primitive"></circle>
  </g>
  <g transform="translate(77.79,37.38)">
    <circle cx="0" cy="0" r="1.41" class="primitive"></circle>
  </g>
  <g transform="translate(64.31,55.51)">
    <circle cx="0" cy="0" r="1.41" class="primitive"></circle>
  </g>
  <g transform="translate(46.1,59.74)">
    <circle cx="0" cy="0" r="1.41" class="primitive"></circle>
  </g>
  <g transform="translate(85.28,52.63)">
    <circle cx="0" cy="0" r="1.41" class="primitive"></circle>
  </g>
  <g transform="translate(11.79,59.47)">
    <circle cx="0" cy="0" r="1.41" class="primitive"></circle>
  </g>
  <g transform="translate(67.07,55.09)">
    <circle cx="0" cy="0" r="1.41" class="primitive"></circle>
  </g>
  <g transform="translate(91.21,38.81)">
    <circle cx="0" cy="0" r="1.41" class="primitive"></circle>
  </g>
  <g transform="translate(74.17,70.33)">
    <circle cx="0" cy="0" r="1.41" class="primitive"></circle>
  </g>
  <g transform="translate(74.14,59.35)">
    <circle cx="0" cy="0" r="1.41" class="primitive"></circle>
  </g>
  <g transform="translate(74.26,60.87)">
    <circle cx="0" cy="0" r="1.41" class="primitive"></circle>
  </g>
  <g transform="translate(41.64,58.61)">
    <circle cx="0" cy="0" r="1.41" class="primitive"></circle>
  </g>
  <g transform="translate(70,64.5)">
    <circle cx="0" cy="0" r="1.41" class="primitive"></circle>
  </g>
  <g transform="translate(89.02,33.92)">
    <circle cx="0" cy="0" r="1.41" class="primitive"></circle>
  </g>
  <g transform="translate(89.79,50.63)">
    <circle cx="0" cy="0" r="1.41" class="primitive"></circle>
  </g>
  <g transform="translate(66.08,51.42)">
    <circle cx="0" cy="0" r="1.41" class="primitive"></circle>
  </g>
  <g transform="translate(11.99,57.85)">
    <circle cx="0" cy="0" r="1.41" class="primitive"></circle>
  </g>
  <g transform="translate(87.59,48.05)">
    <circle cx="0" cy="0" r="1.41" class="primitive"></circle>
  </g>
  <g transform="translate(89.76,91.67)">
    <circle cx="0" cy="0" r="1.41" class="primitive"></circle>
  </g>
  <g transform="translate(64.51,52.75)">
    <circle cx="0" cy="0" r="1.41" class="primitive"></circle>
  </g>
  <g transform="translate(58.56,52.44)">
    <circle cx="0" cy="0" r="1.41" class="primitive"></circle>
  </g>
  <g transform="translate(102,86.14)">
    <circle cx="0" cy="0" r="1.41" class="primitive"></circle>
  </g>
  <g transform="translate(120.55,75.38)">
    <circle cx="0" cy="0" r="1.41" class="primitive"></circle>
  </g>
  <g transform="translate(73,41.42)">
    <circle cx="0" cy="0" r="1.41" class="primitive"></circle>
  </g>
  <g transform="translate(113.82,18.85)">
    <circle cx="0" cy="0" r="1.41" class="primitive"></circle>
  </g>
  <g transform="translate(78.63,32.47)">
    <circle cx="0" cy="0" r="1.41" class="primitive"></circle>
  </g>
  <g transform="translate(13.9,69.83)">
    <circle cx="0" cy="0" r="1.41" class="primitive"></circle>
  </g>
  <g transform="translate(71.62,24.35)">
    <circle cx="0" cy="0" r="1.41" class="primitive"></circle>
  </g>
  <g transform="translate(70.91,61.59)">
    <circle cx="0" cy="0" r="1.41" class="primitive"></circle>
  </g>
  <g transform="translate(80.22,64.12)">
    <circle cx="0" cy="0" r="1.41" class="primitive"></circle>
  </g>
  <g transform="translate(49.35,61.71)">
    <circle cx="0" cy="0" r="1.41" class="primitive"></circle>
  </g>
  <g transform="translate(88.21,52.4)">
    <circle cx="0" cy="0" r="1.41" class="primitive"></circle>
  </g>
  <g transform="translate(83.05,61.41)">
    <circle cx="0" cy="0" r="1.41" class="primitive"></circle>
  </g>
  <g transform="translate(64.83,58.3)">
    <circle cx="0" cy="0" r="1.41" class="primitive"></circle>
  </g>
  <g transform="translate(90.72,54.07)">
    <circle cx="0" cy="0" r="1.41" class="primitive"></circle>
  </g>
  <g transform="translate(72.57,39.23)">
    <circle cx="0" cy="0" r="1.41" class="primitive"></circle>
  </g>
  <g transform="translate(58.78,64.53)">
    <circle cx="0" cy="0" r="1.41" class="primitive"></circle>
  </g>
  <g transform="translate(52.15,46.01)">
    <circle cx="0" cy="0" r="1.41" class="primitive"></circle>
  </g>
  <g transform="translate(125.15,31.16)">
    <circle cx="0" cy="0" r="1.41" class="primitive"></circle>
  </g>
  <g transform="translate(87.96,54.17)">
    <circle cx="0" cy="0" r="1.41" class="primitive"></circle>
  </g>
  <g transform="translate(65.47,46.29)">
    <circle cx="0" cy="0" r="1.41" class="primitive"></circle>
  </g>
  <g transform="translate(83.52,56.34)">
    <circle cx="0" cy="0" r="1.41" class="primitive"></circle>
  </g>
  <g transform="translate(85.14,28.44)">
    <circle cx="0" cy="0" r="1.41" class="primitive"></circle>
  </g>
  <g transform="translate(68.47,57.18)">
    <circle cx="0" cy="0" r="1.41" class="primitive"></circle>
  </g>
  <g transform="translate(70.14,53.78)">
    <circle cx="0" cy="0" r="1.41" class="primitive"></circle>
  </g>
  <g transform="translate(73.16,54.37)">
    <circle cx="0" cy="0" r="1.41" class="primitive"></circle>
  </g>
  <g transform="translate(78.89,28.52)">
    <circle cx="0" cy="0" r="1.41" class="primitive"></circle>
  </g>
  <g transform="translate(111.6,18.78)">
    <circle cx="0" cy="0" r="1.41" class="primitive"></circle>
  </g>
  <g transform="translate(13.54,36.86)">
    <circle cx="0" cy="0" r="1.41" class="primitive"></circle>
  </g>
  <g transform="translate(83.26,52.51)">
    <circle cx="0" cy="0" r="1.41" class="primitive"></circle>
  </g>
</g>
<g font-size="4" stroke="#000000" stroke-opacity="0.000" fill="#000000" id="img-9af239d9-5">
</g>
</svg>